<svg viewBox="0 0 40 20" version="1.1" xmlns="http://www.w3.org/2000/svg" xmlns:xlink="http://www.w3.org/1999/xlink"><g stroke="none" fill-rule="evenodd" fill="#2F973E"><path d="M5.80356777,11.7297818 L12.2153082,11.7297818 L11.0660312,15.7829058 L6.95284479,15.7829058 L5.80356777,11.7297818 Z M4.2810643,9.82862479 L13.7386996,9.82862479 L13.7386996,6.01827769 L4.2810643,6.01827769 L4.2810643,9.82862479 Z M14.7968158,11.7297818 L16.3267187,11.7297818 L16.3267187,4.09688926 L1.69156529,4.09688926 L1.69156529,11.7297818 L3.22206013,11.7297818 L4.37133715,15.7829058 L0.0592545092,15.7829058 L0.0592545092,17.6843603 L17.9596215,17.6843603 L17.9596215,15.7829058 L13.6481308,15.7829058 L14.7968158,11.7297818 Z"></path><polygon points="0.158347465 2.3155438 17.8604101 2.3155438 17.8604101 0.394155372 0.158347465 0.394155372"></polygon><path d="M21.4109746,3.34547107 L22.6662113,3.34547107 L22.4729386,7.04305785 L21.6033594,7.04305785 L21.4109746,3.34547107 Z M24.2828353,12.3829587 L24.4219443,10.7165455 L23.1533887,10.8846446 L23.1533887,8.88084298 L24.7800759,8.88084298 L24.7800759,7.04305785 L23.9247036,7.04305785 L24.2405106,3.34547107 L24.6010101,3.34547107 L24.6010101,1.50709091 L23.0796905,1.50709091 L23.0796905,0.149206612 L21.1842566,0.149206612 L21.1842566,1.50709091 L19.5039976,1.50709091 L19.5039976,3.34547107 L19.8363793,3.34547107 L20.1515943,7.04305785 L19.2648485,7.04305785 L19.2648485,8.88084298 L21.0794809,8.88084298 L21.0794809,10.940281 C21.0794809,10.9988926 21.078297,11.0735702 21.0759292,11.1595537 L19.2849749,11.3963802 L19.5039976,13.3484132 L20.9335644,13.0595207 C20.7684095,14.4786942 20.4315882,16.2373388 19.7754081,17.3426281 L21.6501237,18.1599174 C22.6093838,16.5452727 22.9568603,14.2005124 23.0826503,12.6251405 L24.2828353,12.3829587 Z"></path><path d="M34.1394174,3.34547107 L35.39495,3.34547107 L35.2022693,7.04305785 L34.3320982,7.04305785 L34.1394174,3.34547107 Z M37.7461879,8.88084298 L37.7461879,7.04305785 L36.6540344,7.04305785 L36.9692494,3.34547107 L37.606487,3.34547107 L37.606487,1.50709091 L35.8158287,1.50709091 L35.8158287,0.149206612 L33.8384093,0.149206612 L33.8384093,1.50709091 L31.9551103,1.50709091 L30.7877787,0.0659008264 L24.9952213,1.29971901 L24.9952213,1.59932231 L24.9928535,1.59932231 L24.9928535,7.87968595 C24.9928535,11.8045785 24.922707,14.0237851 23.4144104,17.7020331 L24.9925575,18.1599174 C26.6145091,14.2055702 26.6523941,11.8997851 26.6523941,7.87968595 L26.6523941,2.6474876 L27.4710653,2.52252893 L27.4710653,15.8737686 L25.8881826,15.9142314 L26.2093172,17.9221983 L30.1887222,17.284314 L29.8989611,15.8115868 L28.9225344,15.8365785 L28.9225344,2.30117355 L29.824967,2.16371901 L29.824967,7.87968595 C29.824967,9.7481157 29.7811624,14.0874545 31.0731002,18.0266281 L32.7344166,17.6850744 C31.4842116,13.8625289 31.4842116,9.67046281 31.4842116,7.87968595 L31.4842116,1.91082645 L31.8885156,1.84923967 L31.8885156,3.34547107 L32.565118,3.34547107 L32.8800371,7.04305785 L31.8885156,7.04305785 L31.8885156,8.88084298 L33.7972685,8.88084298 L33.7972685,11.1577686 L32.1279607,11.1577686 L32.1279607,12.9958512 L33.7972685,12.9958512 L33.7972685,17.9326116 L35.8575614,17.9326116 L35.8575614,12.9958512 L37.4872084,12.9958512 L37.4872084,11.1577686 L35.8575614,11.1577686 L35.8575614,8.88084298 L37.7461879,8.88084298 Z"></path></g></svg>
