<svg width="17px" height="13px" viewBox="4 6 17 13" version="1.1" xmlns="http://www.w3.org/2000/svg" xmlns:xlink="http://www.w3.org/1999/xlink"><path d="M7,16.9691239 L9.96912386,14 L10.6762306,14.7071068 L7.6393004,17.744037 L10,17.744037 L10,18.744037 L6.5,18.744037 L6,18.744037 L6,14.744037 L7,14.744037 L7,16.9691239 Z M18,17.0582614 L14.9417386,14 L14.2346318,14.7071068 L17.271562,17.744037 L15,17.744037 L15,18.744037 L18.5,18.744037 L19,18.744037 L19,14.744037 L18,14.744037 L18,17.0582614 Z M7,7.77491316 L9.96912386,10.744037 L10.6762306,10.0369302 L7.6393004,7 L10,7 L10,6 L6.5,6 L6,6 L6,10 L7,10 L7,7.77491316 Z M18,7.68577561 L14.9417386,10.744037 L14.2346318,10.0369302 L17.271562,7 L15,7 L15,6 L18.5,6 L19,6 L19,10 L18,10 L18,7.68577561 Z" stroke="none" fill="#8f9198" fill-rule="evenodd"></path></svg>
