<svg width="13px" height="16px" viewBox="6 4 13 16" version="1.1" xmlns="http://www.w3.org/2000/svg" xmlns:xlink="http://www.w3.org/1999/xlink"><path d="M13.4771316,17.254478 C13.4742554,18.3565744 12.5841942,19.25 11.4719238,19.25 L9.47192383,19.25 L9.47192383,18.25 L11.4729673,18.25 C12.0246757,18.25 12.473387,17.7963709 12.4751639,17.2454563 L12.4855957,14.0111694 L6,14 L6,13 L12.4855957,13.0111694 L12.4855957,11.7005615 L15.05896,9.85992432 L9.01113739,9.85992432 L9.01113739,8.85992432 L15.2031874,8.85992432 C15.7554874,8.85992432 16.018619,9.25805855 16.0436691,9.58673096 C16.0436691,9.58673096 15.9251999,9.07684326 16.0436691,9.58673096 C16.1621384,10.0966187 15.7610424,10.450943 15.7610424,10.450943 L13.4855957,12.0669556 L13.4855957,13.0111694 L19,13 L19,14 L13.4855957,14.0111694 L13.4771316,17.254478 Z M6,6 L6,7.5 L6,9 L7,9 L7,7 L18,7 L18,9 L19,9 L19,7.5 L19,6 L13.1201172,6 L13.1201172,4 L12.1201172,4 L12.1201172,6 L6,6 Z" stroke="none" fill="#8f9198" fill-rule="evenodd"></path></svg>
