<svg width="20px" height="17px" viewBox="2 4 20 17" version="1.1" xmlns="http://www.w3.org/2000/svg" xmlns:xlink="http://www.w3.org/1999/xlink"><g stroke="none" stroke-width="1" fill="none" fill-rule="evenodd" transform="translate(4.000000, 4.000000)"><path d="M4.22349739,7.21153145 L1.6864885,9.74854034 C0.204092726,11.2309361 0.200763577,13.6357924 1.68198052,15.1170094 C3.16018347,16.5952123 5.5667429,16.596208 7.05044953,15.1125014 L9.58745842,12.5754925 L8.69856126,11.6865953 L6.21608273,14.1690738 C5.23972945,15.1454271 3.66358917,15.1522683 2.68047178,14.1691509 C1.70416105,13.1928402 1.70143833,11.6126504 2.68054882,10.6335399 L5.16302735,8.15106141 L4.22349739,7.21153145 Z M7.05192452,4.38310433 L9.74854034,1.6864885 C11.232247,0.20278187 13.6388064,0.203777556 15.1170094,1.68198052 C16.5982263,3.16319745 16.5948971,5.56805376 15.1125014,7.05044953 L12.4158855,9.74706536 L11.5269884,8.85816819 L14.1555443,6.22961232 C15.1346548,5.25050182 15.131932,3.6703121 14.1556213,2.69400137 C13.1725039,1.71088398 11.5963636,1.71772513 10.6200104,2.69407841 L7.99145448,5.32263429 L7.05192452,4.38310433 Z" fill="#8f9198"></path><rect fill="#8f9198" transform="translate(8.388794, 8.526611) rotate(-45.000000) translate(-8.388794, -8.526611) " x="5.38879395" y="7.77661133" width="6" height="1.5" rx="0.75"></rect></g></svg>
